<mxfile host="Electron" agent="Mozilla/5.0 (Windows NT 10.0; Win64; x64) AppleWebKit/537.36 (KHTML, like Gecko) draw.io/26.0.9 Chrome/128.0.6613.186 Electron/32.2.5 Safari/537.36" version="26.0.9">
  <diagram name="Page-1" id="03018318-947c-dd8e-b7a3-06fadd420f32">
    <mxGraphModel dx="3909" dy="2699" grid="1" gridSize="10" guides="1" tooltips="1" connect="1" arrows="1" fold="1" page="1" pageScale="1" pageWidth="1100" pageHeight="850" background="none" math="0" shadow="0">
      <root>
        <mxCell id="0" />
        <mxCell id="1" parent="0" />
        <mxCell id="rpKQkdiTsVDfNuj94QKj-99" value="" style="rounded=0;whiteSpace=wrap;html=1;movable=1;resizable=1;rotatable=1;deletable=1;editable=1;locked=0;connectable=1;" vertex="1" parent="1">
          <mxGeometry x="140" y="-11" width="1400" height="900" as="geometry" />
        </mxCell>
        <mxCell id="0iXcJ-p-wm1zgdfXpmhG-2" value="" style="rounded=0;whiteSpace=wrap;html=1;movable=1;resizable=1;rotatable=1;deletable=1;editable=1;locked=0;connectable=1;" parent="1" vertex="1">
          <mxGeometry x="-1150" y="-880" width="1100" height="830" as="geometry" />
        </mxCell>
        <mxCell id="0iXcJ-p-wm1zgdfXpmhG-3" value="" style="rounded=0;whiteSpace=wrap;html=1;movable=1;resizable=1;rotatable=1;deletable=1;editable=1;locked=0;connectable=1;" parent="1" vertex="1">
          <mxGeometry x="-1310" y="-11" width="1400" height="900" as="geometry" />
        </mxCell>
        <mxCell id="0iXcJ-p-wm1zgdfXpmhG-4" value="" style="whiteSpace=wrap;html=1;rounded=0;shadow=0;labelBackgroundColor=none;strokeColor=#000000;strokeWidth=1;fillColor=none;fontFamily=Verdana;fontSize=12;fontColor=#000000;align=center;comic=1;" parent="1" vertex="1">
          <mxGeometry x="-1130" y="20" width="1060" height="810" as="geometry" />
        </mxCell>
        <mxCell id="0iXcJ-p-wm1zgdfXpmhG-5" value="LOGO" style="whiteSpace=wrap;html=1;rounded=0;shadow=0;labelBackgroundColor=none;strokeWidth=1;fontFamily=Verdana;fontSize=28;align=center;comic=1;" parent="1" vertex="1">
          <mxGeometry x="-1120" y="40" width="190" height="50" as="geometry" />
        </mxCell>
        <mxCell id="0iXcJ-p-wm1zgdfXpmhG-6" value="Search" style="strokeWidth=1;shadow=0;dashed=0;align=center;html=1;shape=mxgraph.mockup.forms.searchBox;strokeColor=#999999;mainText=;strokeColor2=#008cff;fontColor=#666666;fontSize=17;align=left;spacingLeft=3;rounded=0;labelBackgroundColor=none;comic=1;" parent="1" vertex="1">
          <mxGeometry x="-310" y="95" width="220" height="30" as="geometry" />
        </mxCell>
        <mxCell id="0iXcJ-p-wm1zgdfXpmhG-7" value="Topic 1" style="text;html=1;points=[];align=left;verticalAlign=top;spacingTop=-4;fontSize=14;fontFamily=Verdana" parent="1" vertex="1">
          <mxGeometry x="-370" y="40" width="60" height="20" as="geometry" />
        </mxCell>
        <mxCell id="0iXcJ-p-wm1zgdfXpmhG-8" value="Topic 2" style="text;html=1;points=[];align=left;verticalAlign=top;spacingTop=-4;fontSize=14;fontFamily=Verdana" parent="1" vertex="1">
          <mxGeometry x="-290" y="40" width="60" height="20" as="geometry" />
        </mxCell>
        <mxCell id="0iXcJ-p-wm1zgdfXpmhG-9" value="Topic 3" style="text;html=1;points=[];align=left;verticalAlign=top;spacingTop=-4;fontSize=14;fontFamily=Verdana" parent="1" vertex="1">
          <mxGeometry x="-220" y="40" width="60" height="20" as="geometry" />
        </mxCell>
        <mxCell id="0iXcJ-p-wm1zgdfXpmhG-10" value="Topic 4" style="text;html=1;points=[];align=left;verticalAlign=top;spacingTop=-4;fontSize=14;fontFamily=Verdana" parent="1" vertex="1">
          <mxGeometry x="-150" y="40" width="60" height="20" as="geometry" />
        </mxCell>
        <mxCell id="0iXcJ-p-wm1zgdfXpmhG-11" value="" style="whiteSpace=wrap;html=1;rounded=0;shadow=0;labelBackgroundColor=none;strokeWidth=1;fillColor=none;fontFamily=Verdana;fontSize=12;align=center;comic=1;" parent="1" vertex="1">
          <mxGeometry x="-1120" y="230" width="200" height="590" as="geometry" />
        </mxCell>
        <mxCell id="0iXcJ-p-wm1zgdfXpmhG-12" value="" style="line;strokeWidth=1;html=1;rounded=0;shadow=0;labelBackgroundColor=none;fillColor=none;fontFamily=Verdana;fontSize=14;fontColor=#000000;align=center;comic=1;" parent="1" vertex="1">
          <mxGeometry x="-1130" y="140" width="1060" height="10" as="geometry" />
        </mxCell>
        <mxCell id="0iXcJ-p-wm1zgdfXpmhG-13" value="" style="whiteSpace=wrap;html=1;rounded=0;shadow=0;labelBackgroundColor=none;strokeWidth=1;fillColor=none;fontFamily=Verdana;fontSize=12;align=center;comic=1;" parent="1" vertex="1">
          <mxGeometry x="-1120" y="160" width="1040" height="50" as="geometry" />
        </mxCell>
        <mxCell id="0iXcJ-p-wm1zgdfXpmhG-14" value="Section 1" style="text;html=1;points=[];align=left;verticalAlign=top;spacingTop=-4;fontSize=14;fontFamily=Verdana" parent="1" vertex="1">
          <mxGeometry x="-820" y="175" width="60" height="20" as="geometry" />
        </mxCell>
        <mxCell id="0iXcJ-p-wm1zgdfXpmhG-15" value="Section 2" style="text;html=1;points=[];align=left;verticalAlign=top;spacingTop=-4;fontSize=14;fontFamily=Verdana" parent="1" vertex="1">
          <mxGeometry x="-673" y="175" width="60" height="20" as="geometry" />
        </mxCell>
        <mxCell id="0iXcJ-p-wm1zgdfXpmhG-16" value="Section 3" style="text;html=1;points=[];align=left;verticalAlign=top;spacingTop=-4;fontSize=14;fontFamily=Verdana" parent="1" vertex="1">
          <mxGeometry x="-527" y="175" width="60" height="20" as="geometry" />
        </mxCell>
        <mxCell id="0iXcJ-p-wm1zgdfXpmhG-17" value="Section 4" style="text;html=1;points=[];align=left;verticalAlign=top;spacingTop=-4;fontSize=14;fontFamily=Verdana" parent="1" vertex="1">
          <mxGeometry x="-380" y="175" width="60" height="20" as="geometry" />
        </mxCell>
        <mxCell id="0iXcJ-p-wm1zgdfXpmhG-18" value="&lt;div style=&quot;text-align: justify&quot;&gt;&lt;br&gt;&lt;/div&gt;" style="whiteSpace=wrap;html=1;rounded=0;shadow=0;labelBackgroundColor=none;strokeWidth=1;fillColor=none;fontFamily=Verdana;fontSize=12;align=center;verticalAlign=top;spacing=10;comic=1;" parent="1" vertex="1">
          <mxGeometry x="-900" y="640" width="580" height="180" as="geometry" />
        </mxCell>
        <mxCell id="0iXcJ-p-wm1zgdfXpmhG-19" value="" style="verticalLabelPosition=bottom;shadow=0;dashed=0;align=center;html=1;verticalAlign=top;strokeWidth=1;shape=mxgraph.mockup.graphics.simpleIcon;strokeColor=#999999;rounded=0;labelBackgroundColor=none;fontFamily=Verdana;fontSize=14;fontColor=#000000;comic=1;" parent="1" vertex="1">
          <mxGeometry x="-900" y="230" width="580" height="400" as="geometry" />
        </mxCell>
        <mxCell id="0iXcJ-p-wm1zgdfXpmhG-20" value="" style="whiteSpace=wrap;html=1;rounded=0;shadow=0;labelBackgroundColor=none;strokeWidth=1;fillColor=none;fontFamily=Verdana;fontSize=12;align=center;comic=1;" parent="1" vertex="1">
          <mxGeometry x="-310" y="230" width="230" height="400" as="geometry" />
        </mxCell>
        <mxCell id="0iXcJ-p-wm1zgdfXpmhG-21" value="" style="whiteSpace=wrap;html=1;rounded=0;shadow=0;labelBackgroundColor=none;strokeWidth=1;fillColor=none;fontFamily=Verdana;fontSize=12;align=center;comic=1;" parent="1" vertex="1">
          <mxGeometry x="-310" y="640" width="230" height="180" as="geometry" />
        </mxCell>
        <mxCell id="0iXcJ-p-wm1zgdfXpmhG-22" value="Section 1" style="text;html=1;points=[];align=left;verticalAlign=top;spacingTop=-4;fontSize=14;fontFamily=Verdana" parent="1" vertex="1">
          <mxGeometry x="-1110" y="250" width="170" height="20" as="geometry" />
        </mxCell>
        <mxCell id="0iXcJ-p-wm1zgdfXpmhG-23" value="Section 2" style="text;html=1;points=[];align=left;verticalAlign=top;spacingTop=-4;fontSize=14;fontFamily=Verdana" parent="1" vertex="1">
          <mxGeometry x="-1110" y="286" width="170" height="20" as="geometry" />
        </mxCell>
        <mxCell id="0iXcJ-p-wm1zgdfXpmhG-24" value="Section 3" style="text;html=1;points=[];align=left;verticalAlign=top;spacingTop=-4;fontSize=14;fontFamily=Verdana" parent="1" vertex="1">
          <mxGeometry x="-1110" y="321" width="170" height="20" as="geometry" />
        </mxCell>
        <mxCell id="0iXcJ-p-wm1zgdfXpmhG-25" value="Section 4" style="text;html=1;points=[];align=left;verticalAlign=top;spacingTop=-4;fontSize=14;fontFamily=Verdana" parent="1" vertex="1">
          <mxGeometry x="-1110" y="357" width="170" height="20" as="geometry" />
        </mxCell>
        <mxCell id="0iXcJ-p-wm1zgdfXpmhG-26" value="Section 7" style="text;html=1;points=[];align=left;verticalAlign=top;spacingTop=-4;fontSize=14;fontFamily=Verdana" parent="1" vertex="1">
          <mxGeometry x="-1110" y="464" width="170" height="20" as="geometry" />
        </mxCell>
        <mxCell id="0iXcJ-p-wm1zgdfXpmhG-27" value="Section 8" style="text;html=1;points=[];align=left;verticalAlign=top;spacingTop=-4;fontSize=14;fontFamily=Verdana" parent="1" vertex="1">
          <mxGeometry x="-1110" y="500" width="170" height="20" as="geometry" />
        </mxCell>
        <mxCell id="0iXcJ-p-wm1zgdfXpmhG-28" value="Section 9" style="text;html=1;points=[];align=left;verticalAlign=top;spacingTop=-4;fontSize=14;fontFamily=Verdana" parent="1" vertex="1">
          <mxGeometry x="-1110" y="536" width="170" height="20" as="geometry" />
        </mxCell>
        <mxCell id="0iXcJ-p-wm1zgdfXpmhG-29" value="Section 10" style="text;html=1;points=[];align=left;verticalAlign=top;spacingTop=-4;fontSize=14;fontFamily=Verdana" parent="1" vertex="1">
          <mxGeometry x="-1110" y="571" width="170" height="20" as="geometry" />
        </mxCell>
        <mxCell id="0iXcJ-p-wm1zgdfXpmhG-30" value="Section 11" style="text;html=1;points=[];align=left;verticalAlign=top;spacingTop=-4;fontSize=14;fontFamily=Verdana" parent="1" vertex="1">
          <mxGeometry x="-1110" y="607" width="170" height="20" as="geometry" />
        </mxCell>
        <mxCell id="0iXcJ-p-wm1zgdfXpmhG-31" value="Section 12" style="text;html=1;points=[];align=left;verticalAlign=top;spacingTop=-4;fontSize=14;fontFamily=Verdana" parent="1" vertex="1">
          <mxGeometry x="-1110" y="643" width="170" height="20" as="geometry" />
        </mxCell>
        <mxCell id="0iXcJ-p-wm1zgdfXpmhG-32" value="Section 13" style="text;html=1;points=[];align=left;verticalAlign=top;spacingTop=-4;fontSize=14;fontFamily=Verdana" parent="1" vertex="1">
          <mxGeometry x="-1110" y="679" width="170" height="20" as="geometry" />
        </mxCell>
        <mxCell id="0iXcJ-p-wm1zgdfXpmhG-33" value="Section 14" style="text;html=1;points=[];align=left;verticalAlign=top;spacingTop=-4;fontSize=14;fontFamily=Verdana" parent="1" vertex="1">
          <mxGeometry x="-1110" y="714" width="170" height="20" as="geometry" />
        </mxCell>
        <mxCell id="0iXcJ-p-wm1zgdfXpmhG-34" value="Section 5" style="text;html=1;points=[];align=left;verticalAlign=top;spacingTop=-4;fontSize=14;fontFamily=Verdana" parent="1" vertex="1">
          <mxGeometry x="-1110" y="393" width="170" height="20" as="geometry" />
        </mxCell>
        <mxCell id="0iXcJ-p-wm1zgdfXpmhG-35" value="Section 6" style="text;html=1;points=[];align=left;verticalAlign=top;spacingTop=-4;fontSize=14;fontFamily=Verdana" parent="1" vertex="1">
          <mxGeometry x="-1110" y="429" width="170" height="20" as="geometry" />
        </mxCell>
        <mxCell id="0iXcJ-p-wm1zgdfXpmhG-36" value="Section 15" style="text;html=1;points=[];align=left;verticalAlign=top;spacingTop=-4;fontSize=14;fontFamily=Verdana" parent="1" vertex="1">
          <mxGeometry x="-1110" y="750" width="170" height="20" as="geometry" />
        </mxCell>
        <mxCell id="0iXcJ-p-wm1zgdfXpmhG-37" value="External Links" style="text;html=1;points=[];align=left;verticalAlign=top;spacingTop=-4;fontSize=14;fontFamily=Verdana" parent="1" vertex="1">
          <mxGeometry x="-290" y="653" width="170" height="20" as="geometry" />
        </mxCell>
        <mxCell id="0iXcJ-p-wm1zgdfXpmhG-38" value="Feature 1" style="text;html=1;points=[];align=left;verticalAlign=top;spacingTop=-4;fontSize=14;fontFamily=Verdana" parent="1" vertex="1">
          <mxGeometry x="-290" y="250" width="170" height="20" as="geometry" />
        </mxCell>
        <mxCell id="0iXcJ-p-wm1zgdfXpmhG-39" value="Feature 2" style="text;html=1;points=[];align=left;verticalAlign=top;spacingTop=-4;fontSize=14;fontFamily=Verdana" parent="1" vertex="1">
          <mxGeometry x="-290" y="285" width="170" height="20" as="geometry" />
        </mxCell>
        <mxCell id="0iXcJ-p-wm1zgdfXpmhG-40" value="Feature 3" style="text;html=1;points=[];align=left;verticalAlign=top;spacingTop=-4;fontSize=14;fontFamily=Verdana" parent="1" vertex="1">
          <mxGeometry x="-290" y="320" width="170" height="20" as="geometry" />
        </mxCell>
        <mxCell id="0iXcJ-p-wm1zgdfXpmhG-41" value="Feature 4" style="text;html=1;points=[];align=left;verticalAlign=top;spacingTop=-4;fontSize=14;fontFamily=Verdana" parent="1" vertex="1">
          <mxGeometry x="-290" y="355" width="170" height="20" as="geometry" />
        </mxCell>
        <mxCell id="0iXcJ-p-wm1zgdfXpmhG-42" value="Feature 5" style="text;html=1;points=[];align=left;verticalAlign=top;spacingTop=-4;fontSize=14;fontFamily=Verdana" parent="1" vertex="1">
          <mxGeometry x="-290" y="390" width="170" height="20" as="geometry" />
        </mxCell>
        <mxCell id="0iXcJ-p-wm1zgdfXpmhG-43" value="Feature 6" style="text;html=1;points=[];align=left;verticalAlign=top;spacingTop=-4;fontSize=14;fontFamily=Verdana" parent="1" vertex="1">
          <mxGeometry x="-290" y="425" width="170" height="20" as="geometry" />
        </mxCell>
        <mxCell id="rpKQkdiTsVDfNuj94QKj-1" value="" style="html=1;shadow=0;dashed=0;shape=mxgraph.basic.arc;startAngle=0.25;endAngle=1;strokeWidth=4;strokeColor=#0085FC;" vertex="1" parent="1">
          <mxGeometry x="-607" y="-212.5" width="30" height="30" as="geometry" />
        </mxCell>
        <mxCell id="rpKQkdiTsVDfNuj94QKj-5" value="&lt;b&gt;&lt;font style=&quot;font-size: 20px&quot;&gt;Card title&lt;/font&gt;&lt;/b&gt;&lt;br style=&quot;font-size: 14px&quot;&gt;&lt;br style=&quot;font-size: 14px&quot;&gt;Some quick example text to build on the card title and make up the bulk of the card&#39;s content." style="html=1;shadow=0;dashed=0;shape=mxgraph.bootstrap.rrect;rSize=5;html=1;whiteSpace=wrap;verticalAlign=bottom;align=left;spacing=20;spacingBottom=50;fontSize=14;" vertex="1" parent="1">
          <mxGeometry x="715" y="241" width="250" height="350" as="geometry" />
        </mxCell>
        <mxCell id="rpKQkdiTsVDfNuj94QKj-6" value="Image cap" style="html=1;shadow=0;dashed=0;shape=mxgraph.bootstrap.topButton;rSize=5;perimeter=none;whiteSpace=wrap;fillColor=#868E96;strokeColor=#DFDFDF;fontColor=#DEE2E6;resizeWidth=1;fontSize=18;" vertex="1" parent="rpKQkdiTsVDfNuj94QKj-5">
          <mxGeometry width="250" height="180" relative="1" as="geometry" />
        </mxCell>
        <mxCell id="rpKQkdiTsVDfNuj94QKj-7" value="Go somewhere" style="html=1;shadow=0;dashed=0;shape=mxgraph.bootstrap.rrect;rSize=5;perimeter=none;whiteSpace=wrap;fillColor=#0085FC;strokeColor=none;fontColor=#ffffff;resizeWidth=1;fontSize=14;" vertex="1" parent="rpKQkdiTsVDfNuj94QKj-5">
          <mxGeometry y="1" width="120" height="40" relative="1" as="geometry">
            <mxPoint x="20" y="-60" as="offset" />
          </mxGeometry>
        </mxCell>
        <mxCell id="rpKQkdiTsVDfNuj94QKj-8" value="&lt;b&gt;&lt;font style=&quot;font-size: 20px&quot;&gt;Card title&lt;/font&gt;&lt;/b&gt;&lt;font color=&quot;#6c767d&quot;&gt;&lt;b&gt;&lt;font style=&quot;font-size: 14px&quot;&gt;&lt;br style=&quot;font-size: 10px&quot;&gt;Card subtitle&lt;br&gt;&lt;/font&gt;&lt;/b&gt;&lt;/font&gt;&lt;br style=&quot;font-size: 14px&quot;&gt;Some quick example text to build on the card title and make up the bulk of the card&#39;s content." style="html=1;shadow=0;dashed=0;shape=mxgraph.bootstrap.rrect;rSize=5;html=1;whiteSpace=wrap;verticalAlign=top;align=left;spacing=20;fontSize=14;" vertex="1" parent="1">
          <mxGeometry x="1530" y="-280" width="250" height="190" as="geometry" />
        </mxCell>
        <mxCell id="rpKQkdiTsVDfNuj94QKj-9" value="Card link" style="html=1;shadow=0;dashed=0;shape=mxgraph.bootstrap.rrect;rSize=5;perimeter=none;whiteSpace=wrap;fillColor=none;strokeColor=none;fontColor=#0085FC;resizeWidth=1;fontSize=14;align=center;" vertex="1" parent="rpKQkdiTsVDfNuj94QKj-8">
          <mxGeometry y="1" width="80" height="40" relative="1" as="geometry">
            <mxPoint x="10" y="-50" as="offset" />
          </mxGeometry>
        </mxCell>
        <mxCell id="rpKQkdiTsVDfNuj94QKj-10" value="Another link" style="html=1;shadow=0;dashed=0;shape=mxgraph.bootstrap.rrect;rSize=5;perimeter=none;whiteSpace=wrap;fillColor=none;strokeColor=none;fontColor=#0085FC;resizeWidth=1;fontSize=14;align=center;" vertex="1" parent="rpKQkdiTsVDfNuj94QKj-8">
          <mxGeometry y="1" width="100" height="40" relative="1" as="geometry">
            <mxPoint x="100" y="-50" as="offset" />
          </mxGeometry>
        </mxCell>
        <mxCell id="rpKQkdiTsVDfNuj94QKj-11" value="&lt;h1&gt;&lt;font face=&quot;Garamond&quot; style=&quot;font-size: 48px;&quot;&gt;Sign in&lt;/font&gt;&lt;/h1&gt;" style="html=1;shadow=0;dashed=0;shape=mxgraph.bootstrap.rrect;rSize=5;strokeWidth=1;whiteSpace=wrap;align=center;verticalAlign=middle;spacingLeft=10;fontSize=14;spacing=10;strokeColor=none;" vertex="1" parent="1">
          <mxGeometry x="-800" y="-730" width="400" height="250" as="geometry" />
        </mxCell>
        <mxCell id="rpKQkdiTsVDfNuj94QKj-12" value="" style="rounded=1;shadow=1;html=1;arcSize=4;sketch=1;hachureGap=4;pointerEvents=0;fontFamily=Architects Daughter;fontSource=https%3A%2F%2Ffonts.googleapis.com%2Fcss%3Ffamily%3DArchitects%2BDaughter;fontSize=20;" vertex="1" parent="1">
          <mxGeometry x="-410" y="-230" width="333" height="65" as="geometry" />
        </mxCell>
        <mxCell id="rpKQkdiTsVDfNuj94QKj-13" value="You are now connected" style="html=1;shadow=0;dashed=0;shape=mxgraph.atlassian.checkbox;fillColor=#36B37E;strokeColor=none;html=1;fontSize=14;fontStyle=0;labelPosition=right;align=left;spacingLeft=20;sketch=0;hachureGap=4;pointerEvents=0;fontFamily=Architects Daughter;fontSource=https%3A%2F%2Ffonts.googleapis.com%2Fcss%3Ffamily%3DArchitects%2BDaughter;" vertex="1" parent="rpKQkdiTsVDfNuj94QKj-12">
          <mxGeometry width="14" height="14" relative="1" as="geometry">
            <mxPoint x="25" y="25" as="offset" />
          </mxGeometry>
        </mxCell>
        <mxCell id="rpKQkdiTsVDfNuj94QKj-38" value="Painattaessa &quot;login&quot;, muuttuu se pyöriväksi kiekuraksi. Tulee vihreä hyväksyntä-ruksi, kun valmis" style="text;html=1;align=center;verticalAlign=middle;whiteSpace=wrap;rounded=0;" vertex="1" parent="1">
          <mxGeometry x="-886" y="-230" width="213" height="40" as="geometry" />
        </mxCell>
        <mxCell id="rpKQkdiTsVDfNuj94QKj-39" value="Tämä palkki voisi ilmestyä oikealta, kun yhdistetty ja sitten poistua takaisin vasemmalle. Vai onko turha?" style="text;html=1;align=center;verticalAlign=middle;whiteSpace=wrap;rounded=0;" vertex="1" parent="1">
          <mxGeometry x="-297" y="-160" width="220" height="50" as="geometry" />
        </mxCell>
        <mxCell id="rpKQkdiTsVDfNuj94QKj-40" value="Password" style="fillColor=none;strokeColor=none;align=left;fontSize=14;" vertex="1" parent="1">
          <mxGeometry x="-740" y="-430" width="70" height="40" as="geometry" />
        </mxCell>
        <mxCell id="rpKQkdiTsVDfNuj94QKj-41" value="" style="html=1;shadow=0;dashed=0;shape=mxgraph.bootstrap.rrect;rSize=5;fillColor=none;strokeColor=#999999;align=left;spacing=15;fontSize=14;fontColor=#6C767D;" vertex="1" parent="1">
          <mxGeometry x="-660" y="-430" width="200" height="40" as="geometry" />
        </mxCell>
        <mxCell id="rpKQkdiTsVDfNuj94QKj-43" value="Username" style="fillColor=none;strokeColor=none;align=left;fontSize=14;" vertex="1" parent="1">
          <mxGeometry x="-740" y="-490" width="70" height="40" as="geometry" />
        </mxCell>
        <mxCell id="rpKQkdiTsVDfNuj94QKj-44" value="" style="html=1;shadow=0;dashed=0;shape=mxgraph.bootstrap.rrect;rSize=5;fillColor=none;strokeColor=#999999;align=left;spacing=15;fontSize=14;fontColor=#6C767D;" vertex="1" parent="1">
          <mxGeometry x="-660" y="-490" width="200" height="40" as="geometry" />
        </mxCell>
        <mxCell id="rpKQkdiTsVDfNuj94QKj-46" value="Remember Me&lt;span style=&quot;white-space: pre;&quot;&gt;&#x9;&lt;/span&gt;&lt;span style=&quot;white-space: pre;&quot;&gt;&#x9;&lt;/span&gt;Forgotten Password?" style="html=1;shadow=0;dashed=0;shape=mxgraph.bootstrap.switch;strokeColor=#ADB6BD;strokeWidth=1;fillColor=#E9ECEF;fontColor=#7D868C;onStrokeColor=#ffffff;onFillColor=#0085FC;align=left;verticalAlign=middle;spacingLeft=10;labelPosition=right;verticalLabelPosition=middle;buttonState=0;sketch=0;" vertex="1" parent="1">
          <mxGeometry x="-710" y="-360" width="20" height="10" as="geometry" />
        </mxCell>
        <mxCell id="rpKQkdiTsVDfNuj94QKj-55" value="Login" style="rounded=1;fillColor=light-dark(#0065FF, #0085fc);strokeColor=none;html=1;fontColor=#ffffff;align=center;verticalAlign=middle;whiteSpace=wrap;fontSize=18;fontStyle=1;arcSize=50;sketch=0;" vertex="1" parent="1">
          <mxGeometry x="-652" y="-260" width="125" height="40" as="geometry" />
        </mxCell>
        <mxCell id="rpKQkdiTsVDfNuj94QKj-60" value="No account? Create one here.&lt;hr&gt;." style="html=1;shadow=0;dashed=0;shape=mxgraph.bootstrap.switch;strokeColor=#ADB6BD;strokeWidth=1;fillColor=#E9ECEF;fontColor=#7D868C;onStrokeColor=#ffffff;onFillColor=#0085FC;align=left;verticalAlign=middle;spacingLeft=10;labelPosition=right;verticalLabelPosition=middle;buttonState=0;sketch=0;" vertex="1" parent="1">
          <mxGeometry x="-700" y="-80" width="20" height="10" as="geometry" />
        </mxCell>
        <mxCell id="rpKQkdiTsVDfNuj94QKj-61" value="" style="whiteSpace=wrap;html=1;aspect=fixed;strokeColor=none;" vertex="1" parent="1">
          <mxGeometry x="-725" y="-110" width="50" height="50" as="geometry" />
        </mxCell>
        <mxCell id="rpKQkdiTsVDfNuj94QKj-63" value="" style="rounded=0;whiteSpace=wrap;html=1;movable=1;resizable=1;rotatable=1;deletable=1;editable=1;locked=0;connectable=1;" vertex="1" parent="1">
          <mxGeometry x="70" y="-880" width="1100" height="830" as="geometry" />
        </mxCell>
        <mxCell id="rpKQkdiTsVDfNuj94QKj-64" value="" style="html=1;shadow=0;dashed=0;shape=mxgraph.basic.arc;startAngle=0.25;endAngle=1;strokeWidth=4;strokeColor=#0085FC;" vertex="1" parent="1">
          <mxGeometry x="613" y="-212.5" width="30" height="30" as="geometry" />
        </mxCell>
        <mxCell id="rpKQkdiTsVDfNuj94QKj-65" value="&lt;h1&gt;&lt;font face=&quot;Garamond&quot; style=&quot;font-size: 48px;&quot;&gt;New user&lt;/font&gt;&lt;/h1&gt;" style="html=1;shadow=0;dashed=0;shape=mxgraph.bootstrap.rrect;rSize=5;strokeWidth=1;whiteSpace=wrap;align=center;verticalAlign=middle;spacingLeft=10;fontSize=14;spacing=10;strokeColor=none;" vertex="1" parent="1">
          <mxGeometry x="420" y="-730" width="400" height="250" as="geometry" />
        </mxCell>
        <mxCell id="rpKQkdiTsVDfNuj94QKj-66" value="" style="rounded=1;shadow=1;html=1;arcSize=4;sketch=1;hachureGap=4;pointerEvents=0;fontFamily=Architects Daughter;fontSource=https%3A%2F%2Ffonts.googleapis.com%2Fcss%3Ffamily%3DArchitects%2BDaughter;fontSize=20;" vertex="1" parent="1">
          <mxGeometry x="810" y="-230" width="333" height="65" as="geometry" />
        </mxCell>
        <mxCell id="rpKQkdiTsVDfNuj94QKj-67" value="New user created successfully" style="html=1;shadow=0;dashed=0;shape=mxgraph.atlassian.checkbox;fillColor=#36B37E;strokeColor=none;html=1;fontSize=14;fontStyle=0;labelPosition=right;align=left;spacingLeft=20;sketch=0;hachureGap=4;pointerEvents=0;fontFamily=Architects Daughter;fontSource=https%3A%2F%2Ffonts.googleapis.com%2Fcss%3Ffamily%3DArchitects%2BDaughter;" vertex="1" parent="rpKQkdiTsVDfNuj94QKj-66">
          <mxGeometry width="14" height="14" relative="1" as="geometry">
            <mxPoint x="25" y="25" as="offset" />
          </mxGeometry>
        </mxCell>
        <mxCell id="rpKQkdiTsVDfNuj94QKj-68" value="Painattaessa &quot;confirm&quot;, muuttuu se pyöriväksi kiekuraksi. Tulee vihreä hyväksyntä-ruksi, kun valmis" style="text;html=1;align=center;verticalAlign=middle;whiteSpace=wrap;rounded=0;" vertex="1" parent="1">
          <mxGeometry x="334" y="-230" width="213" height="40" as="geometry" />
        </mxCell>
        <mxCell id="rpKQkdiTsVDfNuj94QKj-69" value="Tämä palkki voisi ilmestyä oikealta, kun yhdistetty ja sitten poistua takaisin vasemmalle. Vai onko turha?" style="text;html=1;align=center;verticalAlign=middle;whiteSpace=wrap;rounded=0;" vertex="1" parent="1">
          <mxGeometry x="923" y="-160" width="220" height="50" as="geometry" />
        </mxCell>
        <mxCell id="rpKQkdiTsVDfNuj94QKj-75" value="Confirm" style="rounded=1;fillColor=light-dark(#0065FF, #0085fc);strokeColor=none;html=1;fontColor=#ffffff;align=center;verticalAlign=middle;whiteSpace=wrap;fontSize=18;fontStyle=1;arcSize=50;sketch=0;" vertex="1" parent="1">
          <mxGeometry x="568" y="-260" width="125" height="40" as="geometry" />
        </mxCell>
        <mxCell id="rpKQkdiTsVDfNuj94QKj-76" value="Already have an account? Click here.&lt;hr&gt;." style="html=1;shadow=0;dashed=0;shape=mxgraph.bootstrap.switch;strokeColor=#ADB6BD;strokeWidth=1;fillColor=#E9ECEF;fontColor=#7D868C;onStrokeColor=#ffffff;onFillColor=#0085FC;align=left;verticalAlign=middle;spacingLeft=10;labelPosition=right;verticalLabelPosition=middle;buttonState=0;sketch=0;" vertex="1" parent="1">
          <mxGeometry x="500" y="-80" width="20" height="10" as="geometry" />
        </mxCell>
        <mxCell id="rpKQkdiTsVDfNuj94QKj-77" value="" style="whiteSpace=wrap;html=1;aspect=fixed;strokeColor=none;" vertex="1" parent="1">
          <mxGeometry x="470" y="-110" width="50" height="50" as="geometry" />
        </mxCell>
        <mxCell id="rpKQkdiTsVDfNuj94QKj-86" value="Password" style="fillColor=none;strokeColor=none;align=left;fontSize=14;" vertex="1" parent="1">
          <mxGeometry x="425.5" y="-460" width="260" height="40" as="geometry" />
        </mxCell>
        <mxCell id="rpKQkdiTsVDfNuj94QKj-87" value="" style="html=1;shadow=0;dashed=0;shape=mxgraph.bootstrap.rrect;rSize=5;fillColor=none;strokeColor=#999999;align=left;spacing=15;fontSize=14;fontColor=#6C767D;" vertex="1" parent="1">
          <mxGeometry x="425.5" y="-420" width="410" height="30" as="geometry" />
        </mxCell>
        <mxCell id="rpKQkdiTsVDfNuj94QKj-88" value="Your password must be 8-20 characters long and contain letters and numbers." style="fillColor=none;strokeColor=none;align=left;spacing=2;fontSize=12;fontColor=#999999;" vertex="1" parent="1">
          <mxGeometry x="425.5" y="-390" width="260" height="30" as="geometry" />
        </mxCell>
        <mxCell id="rpKQkdiTsVDfNuj94QKj-89" value="Username" style="fillColor=none;strokeColor=none;align=left;fontSize=14;" vertex="1" parent="1">
          <mxGeometry x="425.5" y="-560" width="260" height="40" as="geometry" />
        </mxCell>
        <mxCell id="rpKQkdiTsVDfNuj94QKj-90" value="" style="html=1;shadow=0;dashed=0;shape=mxgraph.bootstrap.rrect;rSize=5;fillColor=none;strokeColor=#999999;align=left;spacing=15;fontSize=14;fontColor=#6C767D;" vertex="1" parent="1">
          <mxGeometry x="425.5" y="-520" width="410" height="30" as="geometry" />
        </mxCell>
        <mxCell id="rpKQkdiTsVDfNuj94QKj-91" value="Your password must be 8-20 characters long and contain letters and numbers." style="fillColor=none;strokeColor=none;align=left;spacing=2;fontSize=12;fontColor=#999999;" vertex="1" parent="1">
          <mxGeometry x="425.5" y="-490" width="260" height="30" as="geometry" />
        </mxCell>
        <mxCell id="rpKQkdiTsVDfNuj94QKj-92" value="Password" style="fillColor=none;strokeColor=none;align=left;fontSize=14;" vertex="1" parent="1">
          <mxGeometry x="425.5" y="-360" width="260" height="40" as="geometry" />
        </mxCell>
        <mxCell id="rpKQkdiTsVDfNuj94QKj-93" value="" style="html=1;shadow=0;dashed=0;shape=mxgraph.bootstrap.rrect;rSize=5;fillColor=none;strokeColor=#999999;align=left;spacing=15;fontSize=14;fontColor=#6C767D;" vertex="1" parent="1">
          <mxGeometry x="425.5" y="-320" width="410" height="30" as="geometry" />
        </mxCell>
        <mxCell id="rpKQkdiTsVDfNuj94QKj-94" value="Repeat your password" style="fillColor=none;strokeColor=none;align=left;spacing=2;fontSize=12;fontColor=#999999;" vertex="1" parent="1">
          <mxGeometry x="425.5" y="-290" width="260" height="30" as="geometry" />
        </mxCell>
        <mxCell id="rpKQkdiTsVDfNuj94QKj-98" value="" style="whiteSpace=wrap;html=1;aspect=fixed;strokeColor=none;" vertex="1" parent="1">
          <mxGeometry x="480" y="-120" width="50" height="50" as="geometry" />
        </mxCell>
        <mxCell id="rpKQkdiTsVDfNuj94QKj-100" value="&lt;b&gt;&lt;font style=&quot;font-size: 20px&quot;&gt;Card title&lt;/font&gt;&lt;/b&gt;&lt;br style=&quot;font-size: 14px&quot;&gt;&lt;br style=&quot;font-size: 14px&quot;&gt;Some quick example text to build on the card title and make up the bulk of the card&#39;s content." style="html=1;shadow=0;dashed=0;shape=mxgraph.bootstrap.rrect;rSize=5;html=1;whiteSpace=wrap;verticalAlign=bottom;align=left;spacing=20;spacingBottom=50;fontSize=14;" vertex="1" parent="1">
          <mxGeometry x="1000" y="241" width="250" height="350" as="geometry" />
        </mxCell>
        <mxCell id="rpKQkdiTsVDfNuj94QKj-101" value="Image cap" style="html=1;shadow=0;dashed=0;shape=mxgraph.bootstrap.topButton;rSize=5;perimeter=none;whiteSpace=wrap;fillColor=#868E96;strokeColor=#DFDFDF;fontColor=#DEE2E6;resizeWidth=1;fontSize=18;" vertex="1" parent="rpKQkdiTsVDfNuj94QKj-100">
          <mxGeometry width="250" height="180" relative="1" as="geometry" />
        </mxCell>
        <mxCell id="rpKQkdiTsVDfNuj94QKj-102" value="Go somewhere" style="html=1;shadow=0;dashed=0;shape=mxgraph.bootstrap.rrect;rSize=5;perimeter=none;whiteSpace=wrap;fillColor=#0085FC;strokeColor=none;fontColor=#ffffff;resizeWidth=1;fontSize=14;" vertex="1" parent="rpKQkdiTsVDfNuj94QKj-100">
          <mxGeometry y="1" width="120" height="40" relative="1" as="geometry">
            <mxPoint x="20" y="-60" as="offset" />
          </mxGeometry>
        </mxCell>
        <mxCell id="rpKQkdiTsVDfNuj94QKj-103" value="&lt;b&gt;&lt;font style=&quot;font-size: 20px&quot;&gt;Card title&lt;/font&gt;&lt;/b&gt;&lt;br style=&quot;font-size: 14px&quot;&gt;&lt;br style=&quot;font-size: 14px&quot;&gt;Some quick example text to build on the card title and make up the bulk of the card&#39;s content." style="html=1;shadow=0;dashed=0;shape=mxgraph.bootstrap.rrect;rSize=5;html=1;whiteSpace=wrap;verticalAlign=bottom;align=left;spacing=20;spacingBottom=50;fontSize=14;" vertex="1" parent="1">
          <mxGeometry x="430.5" y="241" width="250" height="350" as="geometry" />
        </mxCell>
        <mxCell id="rpKQkdiTsVDfNuj94QKj-104" value="Image cap" style="html=1;shadow=0;dashed=0;shape=mxgraph.bootstrap.topButton;rSize=5;perimeter=none;whiteSpace=wrap;fillColor=#868E96;strokeColor=#DFDFDF;fontColor=#DEE2E6;resizeWidth=1;fontSize=18;" vertex="1" parent="rpKQkdiTsVDfNuj94QKj-103">
          <mxGeometry width="250" height="180" relative="1" as="geometry" />
        </mxCell>
        <mxCell id="rpKQkdiTsVDfNuj94QKj-105" value="Go somewhere" style="html=1;shadow=0;dashed=0;shape=mxgraph.bootstrap.rrect;rSize=5;perimeter=none;whiteSpace=wrap;fillColor=#0085FC;strokeColor=none;fontColor=#ffffff;resizeWidth=1;fontSize=14;" vertex="1" parent="rpKQkdiTsVDfNuj94QKj-103">
          <mxGeometry y="1" width="120" height="40" relative="1" as="geometry">
            <mxPoint x="20" y="-60" as="offset" />
          </mxGeometry>
        </mxCell>
        <mxCell id="rpKQkdiTsVDfNuj94QKj-106" value="&lt;b&gt;&lt;font style=&quot;font-size: 20px&quot;&gt;Card title&lt;/font&gt;&lt;/b&gt;&lt;br style=&quot;font-size: 14px&quot;&gt;&lt;br style=&quot;font-size: 14px&quot;&gt;Some quick example text to build on the card title and make up the bulk of the card&#39;s content." style="html=1;shadow=0;dashed=0;shape=mxgraph.bootstrap.rrect;rSize=5;html=1;whiteSpace=wrap;verticalAlign=bottom;align=left;spacing=20;spacingBottom=50;fontSize=14;" vertex="1" parent="1">
          <mxGeometry x="140" y="241" width="250" height="350" as="geometry" />
        </mxCell>
        <mxCell id="rpKQkdiTsVDfNuj94QKj-107" value="Image cap" style="html=1;shadow=0;dashed=0;shape=mxgraph.bootstrap.topButton;rSize=5;perimeter=none;whiteSpace=wrap;fillColor=#868E96;strokeColor=#DFDFDF;fontColor=#DEE2E6;resizeWidth=1;fontSize=18;" vertex="1" parent="rpKQkdiTsVDfNuj94QKj-106">
          <mxGeometry width="250" height="180" relative="1" as="geometry" />
        </mxCell>
        <mxCell id="rpKQkdiTsVDfNuj94QKj-108" value="Go somewhere" style="html=1;shadow=0;dashed=0;shape=mxgraph.bootstrap.rrect;rSize=5;perimeter=none;whiteSpace=wrap;fillColor=#0085FC;strokeColor=none;fontColor=#ffffff;resizeWidth=1;fontSize=14;" vertex="1" parent="rpKQkdiTsVDfNuj94QKj-106">
          <mxGeometry y="1" width="120" height="40" relative="1" as="geometry">
            <mxPoint x="20" y="-60" as="offset" />
          </mxGeometry>
        </mxCell>
        <mxCell id="rpKQkdiTsVDfNuj94QKj-109" value="&lt;b&gt;&lt;font style=&quot;font-size: 20px&quot;&gt;Card title&lt;/font&gt;&lt;/b&gt;&lt;br style=&quot;font-size: 14px&quot;&gt;&lt;br style=&quot;font-size: 14px&quot;&gt;Some quick example text to build on the card title and make up the bulk of the card&#39;s content." style="html=1;shadow=0;dashed=0;shape=mxgraph.bootstrap.rrect;rSize=5;html=1;whiteSpace=wrap;verticalAlign=bottom;align=left;spacing=20;spacingBottom=50;fontSize=14;" vertex="1" parent="1">
          <mxGeometry x="1290" y="241" width="250" height="350" as="geometry" />
        </mxCell>
        <mxCell id="rpKQkdiTsVDfNuj94QKj-110" value="Image cap" style="html=1;shadow=0;dashed=0;shape=mxgraph.bootstrap.topButton;rSize=5;perimeter=none;whiteSpace=wrap;fillColor=#868E96;strokeColor=#DFDFDF;fontColor=#DEE2E6;resizeWidth=1;fontSize=18;" vertex="1" parent="rpKQkdiTsVDfNuj94QKj-109">
          <mxGeometry width="250" height="180" relative="1" as="geometry" />
        </mxCell>
        <mxCell id="rpKQkdiTsVDfNuj94QKj-111" value="Go somewhere" style="html=1;shadow=0;dashed=0;shape=mxgraph.bootstrap.rrect;rSize=5;perimeter=none;whiteSpace=wrap;fillColor=#0085FC;strokeColor=none;fontColor=#ffffff;resizeWidth=1;fontSize=14;" vertex="1" parent="rpKQkdiTsVDfNuj94QKj-109">
          <mxGeometry y="1" width="120" height="40" relative="1" as="geometry">
            <mxPoint x="20" y="-60" as="offset" />
          </mxGeometry>
        </mxCell>
        <mxCell id="rpKQkdiTsVDfNuj94QKj-112" value="&lt;b&gt;&lt;font style=&quot;font-size: 20px&quot;&gt;Card title&lt;/font&gt;&lt;/b&gt;&lt;br&gt;&lt;br&gt;This is a wider card with supporting text below as a natural lead-in to additional content. This content is a little bit longer.&lt;br&gt;&lt;br&gt;&lt;font style=&quot;font-size: 12px&quot; color=&quot;#999999&quot;&gt;Last udated 3 mind ago&lt;/font&gt;" style="html=1;shadow=0;dashed=0;shape=mxgraph.bootstrap.rrect;rSize=5;html=1;whiteSpace=wrap;verticalAlign=top;align=left;spacing=20;fontSize=14;spacingLeft=170;" vertex="1" parent="1">
          <mxGeometry x="1880" y="-340" width="480" height="240" as="geometry" />
        </mxCell>
        <mxCell id="rpKQkdiTsVDfNuj94QKj-113" value="Image" style="html=1;shadow=0;dashed=0;shape=mxgraph.bootstrap.leftButton;rSize=5;perimeter=none;whiteSpace=wrap;fillColor=#868E96;strokeColor=#DFDFDF;fontColor=#DEE2E6;resizeWidth=1;fontSize=18;" vertex="1" parent="rpKQkdiTsVDfNuj94QKj-112">
          <mxGeometry width="170" height="240" relative="1" as="geometry" />
        </mxCell>
        <mxCell id="rpKQkdiTsVDfNuj94QKj-114" value="&lt;b&gt;&lt;font style=&quot;font-size: 20px&quot;&gt;Special title treatment&lt;/font&gt;&lt;/b&gt;&lt;br style=&quot;font-size: 14px&quot;&gt;&lt;br style=&quot;font-size: 14px&quot;&gt;With supporting text below as a natural lead-in to additional content." style="html=1;shadow=0;dashed=0;shape=mxgraph.bootstrap.rrect;rSize=5;strokeColor=#DFDFDF;html=1;whiteSpace=wrap;fillColor=#FFFFFF;fontColor=#000000;align=left;verticalAlign=top;spacing=20;fontSize=14;" vertex="1" parent="1">
          <mxGeometry x="2360" y="-240" width="380" height="170" as="geometry" />
        </mxCell>
        <mxCell id="rpKQkdiTsVDfNuj94QKj-115" value="Go somewhere" style="html=1;shadow=0;dashed=0;shape=mxgraph.bootstrap.rrect;rSize=5;perimeter=none;whiteSpace=wrap;fillColor=#0085FC;strokeColor=none;fontColor=#ffffff;resizeWidth=1;fontSize=14;" vertex="1" parent="rpKQkdiTsVDfNuj94QKj-114">
          <mxGeometry y="1" width="120" height="40" relative="1" as="geometry">
            <mxPoint x="20" y="-60" as="offset" />
          </mxGeometry>
        </mxCell>
        <mxCell id="rpKQkdiTsVDfNuj94QKj-116" value="&lt;b&gt;&lt;font style=&quot;font-size: 20px&quot;&gt;Special title treatment&lt;/font&gt;&lt;/b&gt;&lt;br style=&quot;font-size: 14px&quot;&gt;&lt;br style=&quot;font-size: 14px&quot;&gt;With supporting text below as a natural lead-in to additional content." style="html=1;shadow=0;dashed=0;shape=mxgraph.bootstrap.rrect;rSize=5;strokeColor=#DFDFDF;html=1;whiteSpace=wrap;fillColor=#FFFFFF;fontColor=#000000;align=left;verticalAlign=top;spacing=20;fontSize=14;" vertex="1" parent="1">
          <mxGeometry x="2780" y="-240" width="380" height="170" as="geometry" />
        </mxCell>
        <mxCell id="rpKQkdiTsVDfNuj94QKj-117" value="Go somewhere" style="html=1;shadow=0;dashed=0;shape=mxgraph.bootstrap.rrect;rSize=5;perimeter=none;whiteSpace=wrap;fillColor=#0085FC;strokeColor=none;fontColor=#ffffff;resizeWidth=1;fontSize=14;" vertex="1" parent="rpKQkdiTsVDfNuj94QKj-116">
          <mxGeometry y="1" width="120" height="40" relative="1" as="geometry">
            <mxPoint x="20" y="-60" as="offset" />
          </mxGeometry>
        </mxCell>
        <mxCell id="rpKQkdiTsVDfNuj94QKj-118" value="" style="html=1;shadow=0;dashed=0;shape=mxgraph.bootstrap.rrect;rSize=5;" vertex="1" parent="1">
          <mxGeometry x="440" y="780" width="800" height="25.5" as="geometry" />
        </mxCell>
        <mxCell id="rpKQkdiTsVDfNuj94QKj-119" value="" style="html=1;shadow=0;dashed=0;shape=mxgraph.bootstrap.leftButton;rSize=5;fillColor=#0085FC;strokeColor=none;fontColor=#ffffff;resizeHeight=1;" vertex="1" parent="rpKQkdiTsVDfNuj94QKj-118">
          <mxGeometry width="130" height="20" relative="1" as="geometry">
            <mxPoint x="335" y="3" as="offset" />
          </mxGeometry>
        </mxCell>
        <mxCell id="rpKQkdiTsVDfNuj94QKj-121" value="" style="html=1;shadow=0;dashed=0;shape=mxgraph.bootstrap.rrect;rSize=5;strokeWidth=1;whiteSpace=wrap;align=center;verticalAlign=middle;spacingLeft=0;fontStyle=0;fontSize=16;spacing=5;gradientDirection=east;strokeColor=none;" vertex="1" parent="1">
          <mxGeometry x="140" y="240" width="170" height="360" as="geometry" />
        </mxCell>
        <mxCell id="rpKQkdiTsVDfNuj94QKj-122" value="" style="html=1;shadow=0;dashed=0;shape=mxgraph.bootstrap.rrect;rSize=5;strokeWidth=1;whiteSpace=wrap;align=center;verticalAlign=middle;spacingLeft=0;fontStyle=0;fontSize=16;spacing=5;gradientDirection=east;strokeColor=none;" vertex="1" parent="1">
          <mxGeometry x="1370" y="217" width="169" height="390" as="geometry" />
        </mxCell>
        <mxCell id="rpKQkdiTsVDfNuj94QKj-123" value="" style="html=1;shadow=0;dashed=0;shape=mxgraph.basic.arc;startAngle=0.25;endAngle=1;strokeWidth=4;strokeColor=#0085FC;" vertex="1" parent="1">
          <mxGeometry x="1480" y="20" width="30" height="30" as="geometry" />
        </mxCell>
        <mxCell id="rpKQkdiTsVDfNuj94QKj-135" value="" style="rounded=0;whiteSpace=wrap;html=1;movable=1;resizable=1;rotatable=1;deletable=1;editable=1;locked=0;connectable=1;" vertex="1" parent="1">
          <mxGeometry x="1570" y="-11" width="1400" height="900" as="geometry" />
        </mxCell>
        <mxCell id="rpKQkdiTsVDfNuj94QKj-153" value="" style="html=1;shadow=0;dashed=0;shape=mxgraph.bootstrap.rrect;rSize=5;strokeWidth=1;whiteSpace=wrap;align=center;verticalAlign=middle;spacingLeft=0;fontStyle=0;fontSize=16;spacing=5;gradientDirection=east;strokeColor=none;" vertex="1" parent="1">
          <mxGeometry x="1570" y="240" width="170" height="360" as="geometry" />
        </mxCell>
        <mxCell id="rpKQkdiTsVDfNuj94QKj-154" value="" style="html=1;shadow=0;dashed=0;shape=mxgraph.bootstrap.rrect;rSize=5;strokeWidth=1;whiteSpace=wrap;align=center;verticalAlign=middle;spacingLeft=0;fontStyle=0;fontSize=16;spacing=5;gradientDirection=east;strokeColor=none;" vertex="1" parent="1">
          <mxGeometry x="2800" y="217" width="169" height="390" as="geometry" />
        </mxCell>
        <mxCell id="rpKQkdiTsVDfNuj94QKj-155" value="" style="html=1;shadow=0;dashed=0;shape=mxgraph.basic.arc;startAngle=0.25;endAngle=1;strokeWidth=4;strokeColor=#0085FC;" vertex="1" parent="1">
          <mxGeometry x="2910" y="20" width="30" height="30" as="geometry" />
        </mxCell>
        <mxCell id="rpKQkdiTsVDfNuj94QKj-158" value="&lt;span style=&quot;font-size: 20px;&quot;&gt;&lt;b&gt;Add a new item&lt;/b&gt;&lt;/span&gt;&lt;br style=&quot;font-size: 14px&quot;&gt;&lt;br style=&quot;font-size: 14px&quot;&gt;To add a new item, make sure you have an existing Telegram or email account." style="html=1;shadow=0;dashed=0;shape=mxgraph.bootstrap.rrect;rSize=5;html=1;whiteSpace=wrap;align=left;verticalAlign=top;spacing=20;fontSize=14;" vertex="1" parent="1">
          <mxGeometry x="2070" y="331" width="380" height="170" as="geometry" />
        </mxCell>
        <mxCell id="rpKQkdiTsVDfNuj94QKj-159" value="Add" style="html=1;shadow=0;dashed=0;shape=mxgraph.bootstrap.rrect;rSize=5;perimeter=none;whiteSpace=wrap;fillColor=#0085FC;strokeColor=none;fontColor=#ffffff;resizeWidth=1;fontSize=14;" vertex="1" parent="rpKQkdiTsVDfNuj94QKj-158">
          <mxGeometry y="1" width="120" height="40" relative="1" as="geometry">
            <mxPoint x="20" y="-60" as="offset" />
          </mxGeometry>
        </mxCell>
        <mxCell id="rpKQkdiTsVDfNuj94QKj-160" value="" style="rounded=0;whiteSpace=wrap;html=1;movable=1;resizable=1;rotatable=1;deletable=1;editable=1;locked=0;connectable=1;strokeColor=#4D4D4D;" vertex="1" parent="1">
          <mxGeometry x="3000" y="-11" width="1400" height="900" as="geometry" />
        </mxCell>
        <mxCell id="rpKQkdiTsVDfNuj94QKj-161" value="" style="html=1;shadow=0;dashed=0;shape=mxgraph.bootstrap.rrect;rSize=5;strokeWidth=1;whiteSpace=wrap;align=center;verticalAlign=middle;spacingLeft=0;fontStyle=0;fontSize=16;spacing=5;gradientDirection=east;strokeColor=none;" vertex="1" parent="1">
          <mxGeometry x="3000" y="240" width="170" height="360" as="geometry" />
        </mxCell>
        <mxCell id="rpKQkdiTsVDfNuj94QKj-162" value="" style="html=1;shadow=0;dashed=0;shape=mxgraph.bootstrap.rrect;rSize=5;strokeWidth=1;whiteSpace=wrap;align=center;verticalAlign=middle;spacingLeft=0;fontStyle=0;fontSize=16;spacing=5;gradientDirection=east;strokeColor=none;" vertex="1" parent="1">
          <mxGeometry x="4230" y="217" width="169" height="390" as="geometry" />
        </mxCell>
        <mxCell id="rpKQkdiTsVDfNuj94QKj-163" value="" style="html=1;shadow=0;dashed=0;shape=mxgraph.basic.arc;startAngle=0.25;endAngle=1;strokeWidth=4;strokeColor=#0085FC;" vertex="1" parent="1">
          <mxGeometry x="4340" y="20" width="30" height="30" as="geometry" />
        </mxCell>
        <mxCell id="rpKQkdiTsVDfNuj94QKj-234" value="" style="edgeStyle=orthogonalEdgeStyle;rounded=0;orthogonalLoop=1;jettySize=auto;html=1;" edge="1" parent="1" source="rpKQkdiTsVDfNuj94QKj-168">
          <mxGeometry relative="1" as="geometry">
            <mxPoint x="3490" y="381" as="targetPoint" />
          </mxGeometry>
        </mxCell>
        <mxCell id="rpKQkdiTsVDfNuj94QKj-197" value="&lt;h1&gt;&lt;font face=&quot;Garamond&quot;&gt;&lt;span style=&quot;font-size: 48px;&quot;&gt;New item&lt;/span&gt;&lt;/font&gt;&lt;/h1&gt;" style="html=1;shadow=0;dashed=0;shape=mxgraph.bootstrap.rrect;rSize=5;strokeWidth=1;whiteSpace=wrap;align=center;verticalAlign=middle;spacingLeft=10;fontSize=14;spacing=10;strokeColor=none;" vertex="1" parent="1">
          <mxGeometry x="3510" y="-9" width="400" height="250" as="geometry" />
        </mxCell>
        <mxCell id="rpKQkdiTsVDfNuj94QKj-198" value="Email address" style="fillColor=none;strokeColor=none;align=left;fontSize=14;" vertex="1" parent="1">
          <mxGeometry x="3310" y="241" width="260" height="40" as="geometry" />
        </mxCell>
        <mxCell id="rpKQkdiTsVDfNuj94QKj-199" value="name@example.com" style="html=1;shadow=0;dashed=0;shape=mxgraph.bootstrap.rrect;rSize=5;fillColor=none;strokeColor=#999999;align=left;spacing=15;fontSize=14;fontColor=#6C767D;" vertex="1" parent="1">
          <mxGeometry width="800" height="30" relative="1" as="geometry">
            <mxPoint x="3310" y="281" as="offset" />
          </mxGeometry>
        </mxCell>
        <mxCell id="rpKQkdiTsVDfNuj94QKj-200" value="Item URL" style="fillColor=none;strokeColor=none;align=left;fontSize=14;" vertex="1" parent="1">
          <mxGeometry width="260" height="40" relative="1" as="geometry">
            <mxPoint x="3310" y="321" as="offset" />
          </mxGeometry>
        </mxCell>
        <mxCell id="rpKQkdiTsVDfNuj94QKj-201" value="https://www.example.com/exampleProduct" style="html=1;shadow=0;dashed=0;shape=mxgraph.bootstrap.rrect;rSize=5;fillColor=none;strokeColor=#999999;align=left;spacing=15;fontSize=14;fontColor=#6C767D;" vertex="1" parent="1">
          <mxGeometry width="800" height="30" relative="1" as="geometry">
            <mxPoint x="3310" y="361" as="offset" />
          </mxGeometry>
        </mxCell>
        <mxCell id="rpKQkdiTsVDfNuj94QKj-202" value="Website Template Select" style="fillColor=none;strokeColor=none;align=left;fontSize=14;" vertex="1" parent="1">
          <mxGeometry width="260" height="40" relative="1" as="geometry">
            <mxPoint x="3310" y="401" as="offset" />
          </mxGeometry>
        </mxCell>
        <mxCell id="rpKQkdiTsVDfNuj94QKj-203" value="" style="html=1;shadow=0;dashed=0;shape=mxgraph.bootstrap.rrect;rSize=5;fillColor=none;strokeColor=#999999;align=left;spacing=15;fontSize=14;fontColor=#6C767D;" vertex="1" parent="1">
          <mxGeometry width="800" height="100" relative="1" as="geometry">
            <mxPoint x="3310" y="441" as="offset" />
          </mxGeometry>
        </mxCell>
        <mxCell id="rpKQkdiTsVDfNuj94QKj-204" value="" style="html=1;shadow=0;dashed=0;shape=mxgraph.bootstrap.rightButton;rSize=5;fillColor=#F1F1F1;strokeColor=#999999;" vertex="1" parent="rpKQkdiTsVDfNuj94QKj-203">
          <mxGeometry x="1" width="20" height="100" relative="1" as="geometry">
            <mxPoint x="-20" as="offset" />
          </mxGeometry>
        </mxCell>
        <mxCell id="rpKQkdiTsVDfNuj94QKj-205" value="" style="fillColor=#C1C1C1;strokeColor=none;" vertex="1" parent="rpKQkdiTsVDfNuj94QKj-204">
          <mxGeometry width="16" height="45" relative="1" as="geometry">
            <mxPoint x="2" y="20" as="offset" />
          </mxGeometry>
        </mxCell>
        <mxCell id="rpKQkdiTsVDfNuj94QKj-206" value="" style="shape=triangle;direction=north;fillColor=#C1C1C1;strokeColor=none;perimeter=none;" vertex="1" parent="rpKQkdiTsVDfNuj94QKj-204">
          <mxGeometry width="10" height="5" relative="1" as="geometry">
            <mxPoint x="5" y="7.5" as="offset" />
          </mxGeometry>
        </mxCell>
        <mxCell id="rpKQkdiTsVDfNuj94QKj-207" value="" style="shape=triangle;direction=south;fillColor=#505050;strokeColor=none;perimeter=none;" vertex="1" parent="rpKQkdiTsVDfNuj94QKj-204">
          <mxGeometry y="1" width="10" height="5" relative="1" as="geometry">
            <mxPoint x="5" y="-12.5" as="offset" />
          </mxGeometry>
        </mxCell>
        <mxCell id="rpKQkdiTsVDfNuj94QKj-208" value="Verkkokauppa.com" style="fillColor=none;strokeColor=none;align=left;spacing=15;fontSize=14;fontColor=#6C767D;" vertex="1" parent="rpKQkdiTsVDfNuj94QKj-203">
          <mxGeometry width="780" height="20" relative="1" as="geometry">
            <mxPoint y="10" as="offset" />
          </mxGeometry>
        </mxCell>
        <mxCell id="rpKQkdiTsVDfNuj94QKj-209" value="Gigantti.fi" style="fillColor=none;strokeColor=none;align=left;spacing=15;fontSize=14;fontColor=#6C767D;" vertex="1" parent="rpKQkdiTsVDfNuj94QKj-203">
          <mxGeometry width="780" height="20" relative="1" as="geometry">
            <mxPoint y="30" as="offset" />
          </mxGeometry>
        </mxCell>
        <mxCell id="rpKQkdiTsVDfNuj94QKj-210" value="Datatronic.fi" style="fillColor=none;strokeColor=none;align=left;spacing=15;fontSize=14;fontColor=#6C767D;" vertex="1" parent="rpKQkdiTsVDfNuj94QKj-203">
          <mxGeometry width="780" height="20" relative="1" as="geometry">
            <mxPoint y="50" as="offset" />
          </mxGeometry>
        </mxCell>
        <mxCell id="rpKQkdiTsVDfNuj94QKj-211" value="Jimms.fi" style="fillColor=none;strokeColor=none;align=left;spacing=15;fontSize=14;fontColor=#6C767D;" vertex="1" parent="rpKQkdiTsVDfNuj94QKj-203">
          <mxGeometry width="780" height="20" relative="1" as="geometry">
            <mxPoint y="70" as="offset" />
          </mxGeometry>
        </mxCell>
        <mxCell id="rpKQkdiTsVDfNuj94QKj-212" value="Item Heading" style="fillColor=none;strokeColor=none;align=left;fontSize=14;" vertex="1" parent="1">
          <mxGeometry width="260" height="40" relative="1" as="geometry">
            <mxPoint x="3310" y="551" as="offset" />
          </mxGeometry>
        </mxCell>
        <mxCell id="rpKQkdiTsVDfNuj94QKj-225" value="Email" style="html=1;shadow=0;dashed=0;shape=mxgraph.bootstrap.radioButton2;labelPosition=right;verticalLabelPosition=middle;align=left;verticalAlign=middle;gradientColor=#DEDEDE;fillColor=#EDEDED;checked=1;spacing=5;checkedFill=#0085FC;checkedStroke=#ffffff;sketch=0;" vertex="1" parent="1">
          <mxGeometry x="3320" y="195" width="10" height="10" as="geometry" />
        </mxCell>
        <mxCell id="rpKQkdiTsVDfNuj94QKj-226" value="Telegram" style="html=1;shadow=0;dashed=0;shape=mxgraph.bootstrap.radioButton2;labelPosition=right;verticalLabelPosition=middle;align=left;verticalAlign=middle;gradientColor=#DEDEDE;fillColor=#EDEDED;checked=0;spacing=5;checkedFill=#0085FC;checkedStroke=#ffffff;sketch=0;" vertex="1" parent="1">
          <mxGeometry x="3320" y="215" width="10" height="10" as="geometry" />
        </mxCell>
        <mxCell id="rpKQkdiTsVDfNuj94QKj-235" value="Example Product 1" style="html=1;shadow=0;dashed=0;shape=mxgraph.bootstrap.rrect;rSize=5;fillColor=none;strokeColor=#999999;align=left;spacing=15;fontSize=14;fontColor=#6C767D;" vertex="1" parent="1">
          <mxGeometry x="3310" y="591" width="800" height="30" as="geometry" />
        </mxCell>
        <mxCell id="rpKQkdiTsVDfNuj94QKj-236" value="Add" style="html=1;shadow=0;dashed=0;shape=mxgraph.bootstrap.rrect;rSize=5;perimeter=none;whiteSpace=wrap;fillColor=#0085FC;strokeColor=none;fontColor=#ffffff;resizeWidth=1;fontSize=14;" vertex="1" parent="1">
          <mxGeometry x="3650" y="679" width="120" height="40" as="geometry" />
        </mxCell>
        <mxCell id="rpKQkdiTsVDfNuj94QKj-237" value="&lt;font style=&quot;font-size: 27px;&quot;&gt;+&lt;/font&gt;" style="html=1;shadow=0;dashed=0;shape=mxgraph.bootstrap.rrect;rSize=5;perimeter=none;whiteSpace=wrap;fillColor=#0085FC;strokeColor=none;fontColor=#ffffff;resizeWidth=1;fontSize=14;" vertex="1" parent="1">
          <mxGeometry x="1472.5" y="772.75" width="45" height="40" as="geometry" />
        </mxCell>
      </root>
    </mxGraphModel>
  </diagram>
</mxfile>
